<?xml version="1.0" encoding="utf-8"?>
<!-- Generator: Adobe Illustrator 15.1.0, SVG Export Plug-In . SVG Version: 6.00 Build 0)  -->
<!DOCTYPE svg PUBLIC "-//W3C//DTD SVG 1.1//EN" "http://www.w3.org/Graphics/SVG/1.1/DTD/svg11.dtd">
<svg version="1.1" xmlns="http://www.w3.org/2000/svg" xmlns:xlink="http://www.w3.org/1999/xlink" x="0px" y="0px" width="40px"
	 height="40px" viewBox="0 0 40 40" enable-background="new 0 0 40 40" xml:space="preserve">
<g id="Layer_5">
	
		<radialGradient id="SVGID_1_" cx="15.9512" cy="44.0156" r="5.6465" gradientTransform="matrix(1.2692 0 0 0.4142 -1.0767 19.4296)" gradientUnits="userSpaceOnUse">
		<stop  offset="0.0424" style="stop-color:#848484"/>
		<stop  offset="1" style="stop-color:#848484;stop-opacity:0"/>
	</radialGradient>
	<ellipse fill="url(#SVGID_1_)" cx="19.168" cy="37.661" rx="7.166" ry="2.339"/>
</g>
<g id="Layer_1" display="none">
	<g display="inline">
		<path fill="#24A449" d="M32.033,13.667c0-7.105-5.762-12.866-12.866-12.866c-7.105,0-12.866,5.76-12.866,12.866
			c0,0.247,0.008,0.491,0.022,0.735c0.011,0.271,0.039,0.576,0.083,0.902c0,0.002,0,0.004,0,0.006
			c0.007,0.06,0.016,0.119,0.025,0.18c0.152,1.072,0.436,2.102,0.835,3.07c2.921,7.565,11.797,18.498,11.937,18.639
			c0,0,9.162-11.339,12.017-19.025c0.008-0.019,0.014-0.038,0.021-0.057c0.193-0.527,0.355-1.074,0.48-1.635
			c0.016-0.064,0.031-0.131,0.047-0.195c0.186-0.829,0.277-1.596,0.254-2.2C32.029,13.947,32.033,13.807,32.033,13.667z"/>
		
			<linearGradient id="SVGID_2_" gradientUnits="userSpaceOnUse" x1="-200.9741" y1="-201.249" x2="-190.7371" y2="-210.139" gradientTransform="matrix(1 0 0 1 214.9971 219.3848)">
			<stop  offset="0" style="stop-color:#FFFFFF"/>
			<stop  offset="1" style="stop-color:#FFFFFF"/>
		</linearGradient>
		<circle fill="url(#SVGID_2_)" cx="19.167" cy="13.667" r="6.735"/>
	</g>
</g>
<g id="Layer_2" display="none">
	<g display="inline">
		<path fill="#F1595A" d="M32.033,13.667c0-7.106-5.762-12.866-12.866-12.866c-7.105,0-12.866,5.76-12.866,12.866
			c0,0.247,0.008,0.491,0.022,0.735c0.011,0.271,0.039,0.576,0.083,0.902c0,0.002,0,0.004,0,0.006
			c0.007,0.06,0.016,0.119,0.025,0.18c0.152,1.072,0.436,2.102,0.835,3.07c2.921,7.565,11.797,18.498,11.937,18.639
			c0,0,9.162-11.339,12.017-19.025c0.008-0.019,0.014-0.038,0.021-0.057c0.193-0.527,0.355-1.074,0.48-1.635
			c0.016-0.064,0.031-0.131,0.047-0.195c0.186-0.829,0.277-1.596,0.254-2.2C32.029,13.947,32.033,13.807,32.033,13.667z"/>
		
			<linearGradient id="SVGID_3_" gradientUnits="userSpaceOnUse" x1="-200.9741" y1="-201.249" x2="-190.7368" y2="-210.1393" gradientTransform="matrix(1 0 0 1 214.9971 219.3848)">
			<stop  offset="0" style="stop-color:#FFFFFF"/>
			<stop  offset="1" style="stop-color:#FFFFFF"/>
		</linearGradient>
		<circle fill="url(#SVGID_3_)" cx="19.167" cy="13.667" r="6.735"/>
	</g>
</g>
<g id="Layer_6" display="none">
	<g display="inline">
		<path fill="#7D63AB" d="M32.035,13.667c0-7.106-5.762-12.866-12.867-12.866S6.302,6.561,6.302,13.667
			c0,0.247,0.008,0.491,0.022,0.735c0.011,0.271,0.039,0.576,0.083,0.902c0,0.002,0,0.004,0,0.006
			c0.007,0.06,0.016,0.119,0.025,0.18c0.152,1.072,0.436,2.102,0.835,3.07c2.921,7.565,11.797,18.498,11.937,18.639
			c0,0,9.162-11.339,12.018-19.025c0.008-0.019,0.014-0.038,0.021-0.057c0.193-0.527,0.355-1.074,0.48-1.635
			c0.016-0.064,0.031-0.131,0.047-0.195c0.186-0.829,0.277-1.596,0.254-2.2C32.031,13.947,32.035,13.807,32.035,13.667z"/>
		
			<linearGradient id="SVGID_4_" gradientUnits="userSpaceOnUse" x1="-200.9727" y1="-201.249" x2="-190.7353" y2="-210.1393" gradientTransform="matrix(1 0 0 1 214.9971 219.3848)">
			<stop  offset="0" style="stop-color:#FFFFFF"/>
			<stop  offset="1" style="stop-color:#FFFFFF"/>
		</linearGradient>
		<circle fill="url(#SVGID_4_)" cx="19.169" cy="13.667" r="6.735"/>
	</g>
</g>
<g id="Layer_3">
	<g>
		<path fill="#24A449" d="M32.033,13.667c0-7.106-5.762-12.866-12.866-12.866c-7.105,0-12.866,5.76-12.866,12.866
			c0,0.247,0.008,0.491,0.022,0.735c0.011,0.271,0.039,0.576,0.083,0.902c0,0.002,0,0.004,0,0.006
			c0.007,0.06,0.016,0.119,0.025,0.18c0.152,1.072,0.436,2.102,0.835,3.07c2.921,7.565,11.797,18.498,11.937,18.639
			c0,0,9.162-11.339,12.017-19.025c0.008-0.019,0.014-0.038,0.021-0.057c0.193-0.527,0.355-1.074,0.48-1.635
			c0.016-0.064,0.031-0.131,0.047-0.195c0.186-0.829,0.277-1.596,0.254-2.2C32.029,13.947,32.033,13.807,32.033,13.667z"/>
		
			<linearGradient id="SVGID_5_" gradientUnits="userSpaceOnUse" x1="-200.9741" y1="-201.249" x2="-190.7368" y2="-210.1393" gradientTransform="matrix(1 0 0 1 214.9971 219.3848)">
			<stop  offset="0" style="stop-color:#FFFFFF"/>
			<stop  offset="1" style="stop-color:#FFFFFF"/>
		</linearGradient>
		<circle fill="url(#SVGID_5_)" cx="19.167" cy="13.667" r="6.735"/>
	</g>
	<g>
		<path fill="#FCB23A" d="M32.033,13.667c0-7.106-5.762-12.866-12.866-12.866c-7.105,0-12.866,5.76-12.866,12.866
			c0,0.247,0.008,0.491,0.022,0.735c0.011,0.271,0.039,0.576,0.083,0.902c0,0.002,0,0.004,0,0.006
			c0.007,0.06,0.016,0.119,0.025,0.18c0.152,1.072,0.436,2.102,0.835,3.07c2.921,7.565,11.797,18.498,11.937,18.639
			c0,0,9.162-11.339,12.017-19.025c0.008-0.019,0.014-0.038,0.021-0.057c0.193-0.527,0.355-1.074,0.48-1.635
			c0.016-0.064,0.031-0.131,0.047-0.195c0.186-0.829,0.277-1.596,0.254-2.2C32.029,13.947,32.033,13.807,32.033,13.667z"/>
		
			<linearGradient id="SVGID_6_" gradientUnits="userSpaceOnUse" x1="-200.9741" y1="-201.249" x2="-190.7368" y2="-210.1393" gradientTransform="matrix(1 0 0 1 214.9971 219.3848)">
			<stop  offset="0" style="stop-color:#FFFFFF"/>
			<stop  offset="1" style="stop-color:#FFFFFF"/>
		</linearGradient>
		<circle fill="url(#SVGID_6_)" cx="19.167" cy="13.667" r="6.735"/>
	</g>
</g>
<g id="Layer_4" display="none">
	<g display="inline">
		<path fill="#24A449" d="M32.033,13.667c0-7.106-5.762-12.866-12.866-12.866c-7.105,0-12.866,5.76-12.866,12.866
			c0,0.247,0.008,0.491,0.022,0.735c0.011,0.271,0.039,0.576,0.083,0.902c0,0.002,0,0.004,0,0.006
			c0.007,0.06,0.016,0.119,0.025,0.18c0.152,1.072,0.436,2.102,0.835,3.07c2.921,7.565,11.797,18.498,11.937,18.639
			c0,0,9.162-11.339,12.017-19.025c0.008-0.019,0.014-0.038,0.021-0.057c0.193-0.527,0.355-1.074,0.48-1.635
			c0.016-0.064,0.031-0.131,0.047-0.195c0.186-0.829,0.277-1.596,0.254-2.2C32.029,13.947,32.033,13.807,32.033,13.667z"/>
		
			<linearGradient id="SVGID_7_" gradientUnits="userSpaceOnUse" x1="-200.9741" y1="-201.249" x2="-190.7368" y2="-210.1393" gradientTransform="matrix(1 0 0 1 214.9971 219.3848)">
			<stop  offset="0" style="stop-color:#FFFFFF"/>
			<stop  offset="1" style="stop-color:#FFFFFF"/>
		</linearGradient>
		<circle fill="url(#SVGID_7_)" cx="19.167" cy="13.667" r="6.735"/>
	</g>
	<g display="inline">
		<path fill="#2EB8E5" d="M32.033,13.667c0-7.106-5.762-12.866-12.866-12.866c-7.105,0-12.866,5.76-12.866,12.866
			c0,0.247,0.008,0.491,0.022,0.735c0.011,0.271,0.039,0.576,0.083,0.902c0,0.002,0,0.004,0,0.006
			c0.007,0.06,0.016,0.119,0.025,0.18c0.152,1.072,0.436,2.102,0.835,3.07c2.921,7.565,11.797,18.498,11.937,18.639
			c0,0,9.162-11.339,12.017-19.025c0.008-0.019,0.014-0.038,0.021-0.057c0.193-0.527,0.355-1.074,0.48-1.635
			c0.016-0.064,0.031-0.131,0.047-0.195c0.186-0.829,0.277-1.596,0.254-2.2C32.029,13.947,32.033,13.807,32.033,13.667z"/>
		
			<linearGradient id="SVGID_8_" gradientUnits="userSpaceOnUse" x1="-200.9751" y1="-201.25" x2="-190.7378" y2="-210.1403" gradientTransform="matrix(1 0 0 1 214.9971 219.3848)">
			<stop  offset="0" style="stop-color:#FFFFFF"/>
			<stop  offset="1" style="stop-color:#FFFFFF"/>
		</linearGradient>
		<circle fill="url(#SVGID_8_)" cx="19.167" cy="13.667" r="6.735"/>
	</g>
</g>
</svg>
