<?xml version="1.0" encoding="utf-8"?>
<!-- Generator: Adobe Illustrator 15.1.0, SVG Export Plug-In . SVG Version: 6.00 Build 0)  -->
<!DOCTYPE svg PUBLIC "-//W3C//DTD SVG 1.1//EN" "http://www.w3.org/Graphics/SVG/1.1/DTD/svg11.dtd">
<svg version="1.1" id="Layer_1" xmlns="http://www.w3.org/2000/svg" xmlns:xlink="http://www.w3.org/1999/xlink" x="0px" y="0px"
	 width="40px" height="40px" viewBox="0 0 40 40" enable-background="new 0 0 40 40" xml:space="preserve">
<radialGradient id="SVGID_1_" cx="16.168" cy="43.2109" r="5.6465" gradientTransform="matrix(1.2692 0 0 0.4142 -1.0767 19.4296)" gradientUnits="userSpaceOnUse">
	<stop  offset="0.0424" style="stop-color:#848484"/>
	<stop  offset="1" style="stop-color:#848484;stop-opacity:0"/>
</radialGradient>
<ellipse fill="url(#SVGID_1_)" cx="19.443" cy="37.328" rx="7.166" ry="2.339"/>
<g>
	<path fill="#24A449" d="M32.311,13.866C32.311,6.76,26.549,1,19.443,1C12.338,1,6.577,6.76,6.577,13.866
		c0,0.247,0.008,0.492,0.022,0.735c0.011,0.271,0.039,0.576,0.083,0.902c0,0.002,0,0.004,0,0.006c0.007,0.06,0.016,0.12,0.025,0.181
		c0.152,1.072,0.436,2.101,0.835,3.07c2.921,7.565,11.797,18.498,11.937,18.638c0,0,9.163-11.339,12.019-19.026
		c0.007-0.018,0.014-0.038,0.021-0.056c0.194-0.528,0.355-1.075,0.481-1.636c0.016-0.064,0.031-0.13,0.047-0.195
		c0.186-0.829,0.276-1.595,0.254-2.2C32.307,14.146,32.311,14.006,32.311,13.866z"/>
	
		<linearGradient id="SVGID_2_" gradientUnits="userSpaceOnUse" x1="-200.6978" y1="-201.0503" x2="-190.4607" y2="-209.9404" gradientTransform="matrix(1 0 0 1 214.9971 219.3848)">
		<stop  offset="0" style="stop-color:#FFFFFF"/>
		<stop  offset="1" style="stop-color:#FFFFFF"/>
	</linearGradient>
	<circle fill="url(#SVGID_2_)" cx="19.444" cy="13.866" r="6.735"/>
</g>
</svg>
